<?xml version="1.0" standalone="no"?>
<!DOCTYPE svg PUBLIC "-//W3C//DTD SVG 20010904//EN"
 "http://www.w3.org/TR/2001/REC-SVG-20010904/DTD/svg10.dtd">
<svg version="1.0" xmlns="http://www.w3.org/2000/svg"
 width="512.000000pt" height="512.000000pt" viewBox="0 0 512.000000 512.000000"
 preserveAspectRatio="xMidYMid meet">
<metadata>
Created by potrace 1.14, written by Peter Selinger 2001-2017
</metadata>
<g transform="translate(0.000000,512.000000) scale(0.100000,-0.100000)"
fill="#000000" stroke="none">
<path d="M0 2560 l0 -2560 2560 0 2560 0 0 2560 0 2560 -2560 0 -2560 0 0
-2560z m2585 2160 c864 -33 1376 -182 1684 -488 125 -124 197 -245 242 -408
27 -100 38 -361 19 -468 -17 -100 -62 -216 -115 -301 -66 -107 -69 -108 -95
-30 l-22 65 -181 -2 -180 -3 -84 -252 -85 -253 -61 -18 c-34 -11 -64 -18 -66
-16 -2 2 -40 123 -85 271 l-82 268 -160 3 -160 2 38 41 c90 95 128 191 128
328 0 271 -158 431 -512 516 -177 43 -333 56 -745 62 l-383 6 0 -601 0 -602
35 0 35 0 0 -320 0 -320 -35 0 -35 0 0 -895 0 -895 -575 0 -575 0 0 840 c0
734 2 845 15 870 l16 30 287 0 287 0 47 -100 46 -100 212 0 212 0 -50 93 c-27
50 -158 307 -292 570 l-243 477 -216 0 -216 0 -52 -98 -53 -97 0 918 0 917
903 0 c496 0 1015 -5 1152 -10z m609 -1965 c98 -268 102 -280 82 -286 -20 -6
-19 -7 5 -13 24 -7 34 -31 116 -254 l90 -247 196 -3 195 -2 9 26 c8 25 10 23
64 -53 31 -43 267 -388 524 -768 257 -379 477 -702 487 -717 l19 -28 -684 0
-685 0 -443 711 c-244 391 -466 737 -492 770 l-48 59 191 0 190 0 0 145 0 145
-435 0 -435 0 0 80 0 80 345 0 345 0 0 130 0 130 -345 0 -345 0 0 70 0 70 425
0 425 0 0 93 0 92 43 27 c23 14 46 25 50 24 5 -1 55 -128 111 -281z m-2264
-171 c44 -92 80 -168 80 -170 0 -2 -72 -4 -160 -4 -88 0 -160 3 -160 8 0 9
153 332 157 332 2 0 40 -75 83 -166z"/>
</g>
</svg>
